<svg xmlns="http://www.w3.org/2000/svg" viewBox="0 0 256 256"><path fill="#333" d="M209,66.15V65a27,27,0,0,0-27-26.85H74.09a27,27,0,0,0-27,27,9,9,0,0,0,0,18V177.4h-18a9,9,0,1,0,0,18H52.05l15.14,19.06a9,9,0,0,0,7,3.4H181.88a9,9,0,0,0,7-3.37L204.2,195.4h22.63a9,9,0,0,0,0-18h-18V85.33a17.48,17.48,0,0,1,9,15.24V128a9,9,0,0,0,18,0V100.57A35.55,35.55,0,0,0,209,66.15ZM65.13,83.09H190.88V177.4H65.13Zm9-26.95H182a9,9,0,0,1,9,8.93v0H65.13A9,9,0,0,1,74.09,56.14Zm4.49,143.72L75,195.4H181.13l-3.57,4.46Z" data-name="Layer 1"/></svg>